Coordinates
version=1
nRows=32
nColumns=32
inDegrees=no

Units are S.I. units (second, meters, Newtons, ...)
If the header above contains a line with 'inDegrees', this indicates whether rotational values are in degrees (yes) or radians (no).

endheader
time	pelvis_tilt	pelvis_list	pelvis_rotation	pelvis_tx	pelvis_ty	pelvis_tz	hip_flexion_r	hip_adduction_r	hip_rotation_r	knee_angle_r	ankle_angle_r	subtalar_angle_r	mtp_angle_r	hip_flexion_l	hip_adduction_l	hip_rotation_l	knee_angle_l	ankle_angle_l	subtalar_angle_l	mtp_angle_l	lumbar_extension	lumbar_bending	lumbar_rotation	arm_flex_r	arm_add_r	arm_rot_r	elbow_flex_r	arm_flex_l	arm_add_l	arm_rot_l	elbow_flex_l
1.81	-0.176958	-0.0778173	-0.090846	0.826705	0.959374	-0.278012	0.688941	0.120011	-0.220057	0.735836	0.215796	-0.196557	0.0104931	0.272584	-0.219812	-0.0822119	2.0295	-0.145152	-0.0873999	-0.0120109	-0.0988529	0.114957	-0.0934895	-0.693719	-0.170819	-0.230087	1.78448	-0.620636	-0.194172	-0.0523509	2.00717
1.815	-0.178833	-0.0837251	-0.0886439	0.824704	0.956269	-0.278336	0.686524	0.126632	-0.207517	0.778762	0.251225	-0.226287	0.0104464	0.318754	-0.2317	-0.0608808	2.06944	-0.127876	-0.0815913	-0.0120196	-0.102388	0.122177	-0.0824553	-0.66698	-0.1751	-0.223222	1.78041	-0.621607	-0.191885	-0.0553211	1.99345
1.82	-0.180425	-0.089088	-0.0863787	0.822572	0.953519	-0.278648	0.680503	0.132801	-0.195767	0.815725	0.281953	-0.249826	0.0103997	0.366054	-0.241984	-0.0388271	2.10459	-0.110031	-0.0739379	-0.0120284	-0.106429	0.128452	-0.0708557	-0.639832	-0.179197	-0.216572	1.7773	-0.622598	-0.189939	-0.0585797	1.9812
1.825	-0.181933	-0.0936315	-0.084147	0.820358	0.951126	-0.278921	0.670663	0.138095	-0.18484	0.846351	0.308723	-0.266619	0.010353	0.414279	-0.250241	-0.0168837	2.13452	-0.091849	-0.0657821	-0.0120372	-0.110545	0.133428	-0.0586591	-0.612815	-0.182952	-0.210282	1.77556	-0.623891	-0.188503	-0.0619368	1.97067
1.83	-0.183594	-0.0970249	-0.0818804	0.818116	0.949081	-0.279156	0.657095	0.141936	-0.174972	0.870718	0.332304	-0.276626	0.0103063	0.463267	-0.255951	0.0041684	2.15889	-0.0736582	-0.058479	-0.012046	-0.114216	0.136735	-0.0460307	-0.586512	-0.186225	-0.204494	1.77562	-0.625781	-0.187742	-0.0651713	1.96205
1.835	-0.185616	-0.0989258	-0.0793606	0.815908	0.947368	-0.279384	0.640104	0.14368	-0.166523	0.889235	0.35329	-0.280271	0.0102597	0.512833	-0.258566	0.0236335	2.17747	-0.055869	-0.0532676	-0.0120548	-0.116917	0.138025	-0.0333126	-0.561494	-0.188909	-0.199324	1.77784	-0.628543	-0.187793	-0.0680764	1.95549
1.84	-0.188131	-0.0990196	-0.076276	0.813799	0.945974	-0.279652	0.620078	0.142727	-0.159869	0.902497	0.371995	-0.278322	0.010213	0.562694	-0.257597	0.0409015	2.19008	-0.0389338	-0.051127	-0.0120635	-0.118218	0.137005	-0.0209554	-0.538257	-0.190942	-0.194841	1.78249	-0.632411	-0.188756	-0.070503	1.95108
1.845	-0.191143	-0.0970506	-0.0722993	0.811851	0.944892	-0.280007	0.597375	0.138598	-0.155309	0.911137	0.388452	-0.27174	0.0101664	0.612406	-0.252683	0.0554401	2.19663	-0.0232887	-0.0526572	-0.0120723	-0.117864	0.133447	-0.00942393	-0.517187	-0.192308	-0.191054	1.78969	-0.637552	-0.190692	-0.0723849	1.94881
1.85	-0.194528	-0.0928409	-0.0671576	0.810122	0.944131	-0.280487	0.572232	0.131	-0.153009	0.915707	0.402451	-0.261526	0.0101198	0.661357	-0.243649	0.0667972	2.19708	-0.00930363	-0.0580456	-0.012081	-0.115813	0.127202	0.000898644	-0.498536	-0.193036	-0.187924	1.79941	-0.644036	-0.193635	-0.0737381	1.94863
1.855	-0.19806	-0.086312	-0.0606819	0.808658	0.943715	-0.281115	0.544742	0.119862	-0.153001	0.916596	0.413607	-0.248605	0.0100732	0.70881	-0.230545	0.0746268	2.19143	0.00276517	-0.0670897	-0.0120898	-0.11223	0.118225	0.00978272	-0.482426	-0.193191	-0.185383	1.81148	-0.651827	-0.197597	-0.0746386	1.9504
1.86	-0.201478	-0.0775075	-0.0528311	0.807498	0.943678	-0.281899	0.514887	0.105352	-0.155212	0.913999	0.421411	-0.233741	0.0100267	0.754005	-0.213658	0.0787367	2.17979	0.0128197	-0.0792418	-0.0120985	-0.107415	0.106598	0.0171827	-0.468871	-0.19286	-0.183354	1.82564	-0.660792	-0.202573	-0.0751939	1.95397
1.865	-0.204555	-0.0666084	-0.0436919	0.806664	0.944054	-0.282837	0.482612	0.0878822	-0.159524	0.907934	0.425278	-0.217512	0.00998014	0.796272	-0.193506	0.0791343	2.16232	0.0209545	-0.0936601	-0.0121073	-0.101723	0.0925422	0.0232245	-0.457796	-0.192146	-0.181757	1.84159	-0.670738	-0.208534	-0.0755217	1.95913
1.87	-0.207156	-0.0539245	-0.0334657	0.806169	0.94487	-0.283918	0.447896	0.0680632	-0.16582	0.898292	0.424577	-0.200317	0.00993361	0.835127	-0.170798	0.0760348	2.13931	0.0274619	-0.109281	-0.012116	-0.0954695	0.0764145	0.0281676	-0.449064	-0.191159	-0.180517	1.85901	-0.681459	-0.215415	-0.0757417	1.96569
1.875	-0.209253	-0.039858	-0.0224441	0.806011	0.946139	-0.285117	0.410801	0.0466391	-0.174022	0.884905	0.418657	-0.182398	0.0098871	0.870296	-0.146361	0.0698213	2.11109	0.0327917	-0.124931	-0.0121247	-0.0888991	0.0586593	0.032354	-0.442497	-0.190012	-0.179557	1.87759	-0.692769	-0.223112	-0.0759767	1.97346
1.88	-0.210902	-0.0248514	-0.0109729	0.806177	0.947859	-0.286402	0.371479	0.0243983	-0.184101	0.867615	0.406862	-0.163877	0.00984061	0.901691	-0.121063	0.0609732	2.07809	0.0374605	-0.139471	-0.0121334	-0.0821721	0.0397551	0.0361533	-0.437897	-0.188816	-0.1788	1.8971	-0.70453	-0.231474	-0.076356	1.98228
1.885	-0.212205	-0.00933791	0.000592048	0.806644	0.950011	-0.287725	0.330162	0.00209131	-0.196074	0.846324	0.388559	-0.144762	0.00979413	0.929358	-0.095729	0.049992	2.04072	0.0419415	-0.151936	-0.0121421	-0.0753824	0.0201628	0.0399062	-0.435062	-0.187675	-0.178168	1.91734	-0.716665	-0.240315	-0.077018	1.992
1.89	-0.213283	0.00629242	0.0119277	0.807385	0.952564	-0.289038	0.287142	-0.0196261	-0.209981	0.821019	0.363169	-0.124975	0.00974767	0.953422	-0.0710812	0.0373451	1.9994	0.0465628	-0.161635	-0.0121507	-0.068569	0.000294686	0.0438849	-0.433802	-0.186686	-0.177585	1.93815	-0.729151	-0.249423	-0.0781079	2.00254
1.895	-0.214258	0.0217029	0.0227723	0.808372	0.955472	-0.290298	0.242768	-0.0402094	-0.225849	0.791786	0.330203	-0.104389	0.00970123	0.974063	-0.0477114	0.0234373	1.95454	0.0514433	-0.168208	-0.0121594	-0.0617164	-0.0194914	0.048279	-0.433958	-0.185932	-0.176989	1.95943	-0.742017	-0.258581	-0.0797645	2.01379
1.9	-0.215256	0.0366035	0.0329352	0.809576	0.958673	-0.291474	0.197452	-0.0592131	-0.243617	0.758805	0.289323	-0.0828774	0.0096548	0.991504	-0.0260825	0.00860042	1.9065	0.0564805	-0.171623	-0.012168	-0.0547518	-0.0388782	0.0532064	-0.435406	-0.185486	-0.176333	1.98113	-0.755316	-0.267586	-0.0821052	2.02569
1.905	-0.216415	0.0507315	0.0422915	0.810973	0.962099	-0.292554	0.151678	-0.0762597	-0.263074	0.722357	0.240409	-0.0603968	0.00960839	1.00602	-0.00655476	-0.00689633	1.85561	0.0614005	-0.172086	-0.0121767	-0.0475417	-0.0575645	0.0587344	-0.438059	-0.185408	-0.175601	2.0032	-0.769104	-0.276265	-0.0852119	2.03816
1.91	-0.217891	0.0638397	0.0507679	0.812537	0.965668	-0.293542	0.106	-0.0910132	-0.283794	0.682828	0.18363	-0.0370775	0.00956199	1.01792	0.0105873	-0.0228221	1.80217	0.0658566	-0.169907	-0.0121853	-0.0399027	-0.0752466	0.0648966	-0.441847	-0.185748	-0.17479	2.02561	-0.783432	-0.28448	-0.0891266	2.05111
1.915	-0.219828	0.0756927	0.0583224	0.814246	0.969293	-0.294452	0.0610145	-0.103183	-0.30512	0.640725	0.119518	-0.0132996	0.0095156	1.02753	0.0251249	-0.038963	1.74642	0.0695379	-0.165373	-0.0121939	-0.0316347	-0.0916298	0.0716942	-0.446688	-0.186547	-0.173899	2.04833	-0.798338	-0.292125	-0.0938636	2.06442
1.92	-0.222337	0.0860788	0.0649318	0.816075	0.972883	-0.295296	0.0173037	-0.112558	-0.326199	0.596695	0.0490298	0.0102834	0.00946923	1.03512	0.036918	-0.0551144	1.68855	0.0722389	-0.1587	-0.0122025	-0.0225735	-0.106458	0.0790943	-0.452469	-0.187836	-0.17291	2.07129	-0.813853	-0.299119	-0.0994225	2.07799
1.925	-0.225466	0.0948552	0.0705847	0.817997	0.976357	-0.296074	-0.0246108	-0.119062	-0.34607	0.551555	-0.0264288	0.0327755	0.00942287	1.04089	0.0459344	-0.0710958	1.62867	0.0738751	-0.150065	-0.012211	-0.0126353	-0.119548	0.0870325	-0.459033	-0.189621	-0.171793	2.0944	-0.829992	-0.305404	-0.105795	2.09166
1.93	-0.229188	0.101993	0.0752731	0.81998	0.979651	-0.296772	-0.0642925	-0.122825	-0.363794	0.506309	-0.105025	0.0530973	0.00937652	1.04492	0.0522837	-0.0867847	1.56678	0.0744584	-0.139674	-0.0122196	-0.00184395	-0.130841	0.09542	-0.466179	-0.191879	-0.170506	2.11754	-0.846743	-0.310946	-0.112968	2.10526
1.935	-0.233405	0.107608	0.0789871	0.821986	0.982723	-0.297369	-0.101398	-0.12422	-0.378587	0.462152	-0.184598	0.0700569	0.00933019	1.04716	0.0562365	-0.102143	1.50276	0.0740534	-0.127789	-0.0122281	0.00966448	-0.140427	0.104154	-0.473682	-0.194549	-0.169007	2.14058	-0.86406	-0.31573	-0.120916	2.11864
1.94	-0.237967	0.111937	0.0817122	0.823974	0.985549	-0.297843	-0.135675	-0.123865	-0.389919	0.420438	-0.262824	0.0824337	0.00928387	1.04745	0.0582166	-0.117225	1.43635	0.0727348	-0.114713	-0.0122367	0.0216571	-0.148557	0.113128	-0.481313	-0.197544	-0.167254	2.16336	-0.881856	-0.319767	-0.129593	2.13165
1.945	-0.242681	0.115328	0.0834378	0.825909	0.988119	-0.298189	-0.16694	-0.122526	-0.397561	0.382611	-0.337413	0.0890816	0.00923756	1.04557	0.058748	-0.13216	1.36724	0.0705454	-0.100743	-0.0122452	0.0338387	-0.155581	0.122243	-0.488857	-0.200768	-0.165212	2.18572	-0.899994	-0.323087	-0.138924	2.14417
1.95	-0.247352	0.11815	0.0841639	0.827765	0.990439	-0.298418	-0.19506	-0.121007	-0.401558	0.350119	-0.406282	0.0890451	0.00919126	1.04128	0.0583748	-0.147127	1.29513	0.0674656	-0.086109	-0.0122537	0.0458918	-0.161866	0.131414	-0.496134	-0.204134	-0.162864	2.20747	-0.918283	-0.32574	-0.14879	2.15613
1.955	-0.251808	0.120702	0.0839074	0.829523	0.992518	-0.298547	-0.219941	-0.119986	-0.40213	0.324304	-0.467679	0.0816665	0.00914497	1.03442	0.0575674	-0.162331	1.2198	0.063406	-0.0708906	-0.0122621	0.0575198	-0.167701	0.140565	-0.503014	-0.207566	-0.160215	2.22844	-0.936485	-0.327778	-0.159025	2.16745
1.96	-0.255928	0.123121	0.0827066	0.831153	0.994368	-0.298579	-0.241511	-0.119891	-0.399531	0.306297	-0.520238	0.0666644	0.0090987	1.02496	0.0566416	-0.177993	1.14124	0.0582221	-0.0549593	-0.0122706	0.0684738	-0.173221	0.149622	-0.509433	-0.211008	-0.157306	2.24844	-0.954311	-0.329256	-0.169409	2.17809
1.965	-0.259621	0.125348	0.0806331	0.832648	0.99599	-0.298517	-0.259728	-0.120805	-0.393917	0.296926	-0.56301	0.0441793	0.00905244	1.01302	0.055708	-0.19435	1.05974	0.0517584	-0.0379365	-0.012279	0.0785677	-0.178359	0.1585	-0.515383	-0.214422	-0.154213	2.26733	-0.971438	-0.330216	-0.179684	2.18801
